<svg xmlns="http://www.w3.org/2000/svg" viewBox="0 0 140 120" width="100%" height="100%">
  <rect x="5" y="5" width="100" height="100" rx="10" fill="#0077c8" />
  <rect x="8" y="8" width="94" height="94" rx="7" fill="none" stroke="#ffffff" stroke-width="3" />

  <path d="M 30 25 h 25 c 15 0 22 8 22 20 c 0 12 -7 20 -22 20 h -10 v 20 h -15 z m 15 15 v 10 h 10 c 5 0 6 -3 6 -5 c 0 -2 -1 -5 -6 -5 z" fill="#ffffff" />

  <path d="M 85 75 L 92 65 H 118 L 125 75 L 132 77 V 100 H 127 V 105 H 117 V 100 H 93 V 105 H 83 V 100 H 78 V 77 Z" fill="#000000" />

  <polygon points="88,73 94,67 116,67 122,73" fill="#ffffff" />
  <rect x="82" y="85" width="12" height="5" rx="1" fill="#ffffff" />
  <rect x="116" y="85" width="12" height="5" rx="1" fill="#ffffff" />
  <rect x="98" y="85" width="14" height="3" rx="0.5" fill="#ffffff" />
  <rect x="98" y="91" width="14" height="2" rx="0.5" fill="#ffffff" />
</svg>
